<?xml version="1.0" encoding="utf-8"?>
<!-- Generator: Adobe Illustrator 27.9.4, SVG Export Plug-In . SVG Version: 9.03 Build 54784)  -->
<svg version="1.1" id="Layer_1" xmlns="http://www.w3.org/2000/svg" xmlns:xlink="http://www.w3.org/1999/xlink" x="0px" y="0px"
	 viewBox="0 0 400 160" style="enable-background:new 0 0 400 160;" xml:space="preserve">
<style type="text/css">
	.st0{stroke:#010101;stroke-miterlimit:10;}
	.st1{fill:none;stroke:#010101;stroke-width:6;}
</style>
<g>
	<path d="M156.4,77.2h-25.9l1.4-10.2l29.9-38.3h11.7L168,68h8.9l-1.3,9.3h-8.9L165,89.6h-10.3L156.4,77.2z M161.1,43.4h-0.2
		L142.3,68h15.4L161.1,43.4z"/>
	<path d="M184.4,59.2c0.7-4.8,1.7-8.9,2.9-12.3c1.3-3.4,2.7-6.3,4.3-8.6c1.6-2.3,3.3-4.2,5-5.6c1.8-1.4,3.5-2.5,5.3-3.2
		c1.7-0.7,3.4-1.2,4.9-1.4c1.5-0.2,2.9-0.3,4-0.3c1.1,0,2.5,0.1,4,0.3c1.5,0.2,3,0.7,4.5,1.4c1.5,0.7,3,1.8,4.3,3.2
		c1.4,1.4,2.5,3.3,3.5,5.6s1.6,5.2,1.8,8.6c0.3,3.4,0.1,7.5-0.6,12.3c-0.7,4.8-1.6,8.9-2.9,12.3c-1.2,3.4-2.6,6.3-4.2,8.6
		c-1.6,2.3-3.3,4.2-5.1,5.6c-1.8,1.4-3.6,2.5-5.3,3.2c-1.7,0.7-3.4,1.2-4.9,1.4c-1.5,0.2-2.9,0.3-4,0.3c-1.1,0-2.5-0.1-4-0.3
		c-1.5-0.2-3-0.7-4.5-1.4c-1.5-0.7-3-1.8-4.4-3.2c-1.4-1.4-2.6-3.3-3.5-5.6c-0.9-2.3-1.5-5.2-1.8-8.6
		C183.5,68.1,183.7,64,184.4,59.2z M194.7,59.2c-0.3,1.9-0.5,4.1-0.6,6.6c-0.1,2.5,0.1,4.9,0.6,7.1c0.5,2.2,1.4,4.1,2.8,5.7
		c1.3,1.5,3.3,2.3,5.8,2.3c2.6,0,4.7-0.8,6.5-2.3c1.7-1.5,3.2-3.4,4.3-5.7c1.1-2.2,2-4.6,2.6-7.1c0.6-2.5,1-4.7,1.3-6.6
		c0.3-1.9,0.5-4.1,0.6-6.6c0.1-2.5-0.1-4.9-0.6-7.1c-0.5-2.2-1.4-4.1-2.8-5.7c-1.3-1.5-3.3-2.3-5.8-2.3s-4.7,0.8-6.5,2.3
		c-1.7,1.5-3.2,3.4-4.3,5.7c-1.1,2.2-2,4.6-2.6,7.1C195.5,55.1,195,57.3,194.7,59.2z"/>
	<path d="M273.7,28.7l-17.8,22.5l0.2,0.2c0.6-0.3,1.5-0.6,2.6-0.8c1.1-0.2,2.2-0.3,3.2-0.3c2.7,0,5.1,0.5,7.2,1.5
		c2.1,1,3.8,2.4,5.2,4.2c1.4,1.8,2.3,3.8,2.9,6.2c0.5,2.4,0.6,4.8,0.3,7.5c-0.5,3.2-1.4,6-2.8,8.6c-1.4,2.6-3.3,4.8-5.5,6.6
		c-2.2,1.8-4.7,3.2-7.5,4.2c-2.8,1-5.7,1.5-8.8,1.5c-3.2,0-6.1-0.5-8.6-1.4s-4.6-2.3-6.2-4.1c-1.7-1.8-2.9-4-3.6-6.5
		c-0.7-2.6-0.8-5.5-0.4-8.7c0.5-3.2,1.4-6.1,2.8-8.7c1.4-2.6,3.1-5.3,5.2-8l19-24.5H273.7z M245,69.8c-0.2,1.5-0.1,3,0.3,4.3
		c0.4,1.3,1,2.5,1.9,3.5c0.9,1,1.9,1.8,3.2,2.4c1.3,0.6,2.7,0.9,4.2,0.9c1.5,0,3-0.3,4.4-0.9c1.4-0.6,2.7-1.4,3.8-2.4
		c1.1-1,2.1-2.2,2.9-3.5c0.8-1.3,1.3-2.8,1.5-4.3c0.2-1.5,0.1-3-0.3-4.3c-0.4-1.3-1-2.5-1.9-3.5c-0.9-1-1.9-1.8-3.2-2.4
		c-1.3-0.6-2.7-0.9-4.2-0.9s-3,0.3-4.4,0.9c-1.4,0.6-2.7,1.4-3.8,2.4c-1.1,1-2.1,2.2-2.9,3.5C245.8,66.8,245.2,68.2,245,69.8z"/>
</g>
<g>
	<path class="st0" d="M7.4,121.6h3.7l6.4,28.3h0.1l6.9-28.3h3.7l6.8,28.3H35l6.5-28.3h3.5l-8.2,34.1h-3.6l-6.9-28.9h-0.1l-6.9,28.9
		h-3.6L7.4,121.6z"/>
	<path class="st0" d="M48.6,121.6h17.6v3.8H52v10.7h13.3v3.8H52V152h14.9v3.8H48.6V121.6z"/>
	<path class="st0" d="M72,121.6h8.5c1.2,0,2.3,0.1,3.4,0.4c1.1,0.3,2.1,0.8,3,1.4c0.9,0.7,1.6,1.5,2.1,2.6s0.8,2.4,0.8,4
		c0,2-0.4,3.6-1.3,4.9c-0.9,1.3-2.1,2.2-3.6,2.8v0.1c0.9,0.1,1.7,0.4,2.5,0.8c0.8,0.5,1.4,1.1,2,1.8c0.6,0.7,1,1.6,1.3,2.6
		c0.3,1,0.5,2,0.5,3.2c0,1.9-0.3,3.5-1,4.7c-0.6,1.2-1.5,2.2-2.5,2.9c-1,0.7-2.2,1.2-3.5,1.5c-1.3,0.3-2.6,0.4-3.9,0.4H72V121.6z
		 M75.3,136.1h4.6c0.8,0,1.6-0.1,2.3-0.2c0.7-0.1,1.4-0.4,2-0.8c0.6-0.4,1.1-1,1.5-1.7c0.4-0.7,0.6-1.7,0.6-2.9
		c0-1.1-0.2-1.9-0.5-2.6c-0.3-0.7-0.8-1.2-1.4-1.6c-0.6-0.4-1.2-0.6-1.9-0.8c-0.7-0.1-1.5-0.2-2.2-0.2h-4.9V136.1z M75.3,152h5.6
		c0.8,0,1.6-0.1,2.4-0.3c0.8-0.2,1.5-0.5,2.2-1c0.6-0.5,1.2-1.1,1.6-1.8c0.4-0.8,0.6-1.7,0.6-2.8c0-1.2-0.2-2.2-0.6-3
		s-0.9-1.4-1.5-1.9c-0.6-0.5-1.3-0.8-2.1-1c-0.8-0.2-1.6-0.3-2.5-0.3h-5.7V152z"/>
	<path class="st0" d="M107.3,121.6h10.7c0.9,0,1.9,0.1,2.9,0.4c1,0.3,2,0.7,3.1,1.2c1,0.6,2,1.3,2.9,2.2c0.9,0.9,1.8,2,2.5,3.3
		c0.7,1.3,1.3,2.7,1.7,4.4c0.4,1.7,0.6,3.5,0.6,5.6s-0.2,4-0.6,5.6c-0.4,1.7-1,3.1-1.7,4.4c-0.7,1.3-1.5,2.4-2.5,3.3
		c-0.9,0.9-1.9,1.6-2.9,2.2c-1,0.6-2,1-3.1,1.2c-1,0.3-2,0.4-2.9,0.4h-10.7V121.6z M110.7,152h6.3c1.6,0,3.1-0.3,4.5-0.8
		c1.4-0.5,2.6-1.3,3.6-2.4c1-1.1,1.8-2.5,2.4-4.1c0.6-1.7,0.9-3.7,0.9-6s-0.3-4.4-0.9-6c-0.6-1.7-1.4-3-2.4-4.1
		c-1-1.1-2.2-1.9-3.6-2.4c-1.4-0.5-2.9-0.8-4.5-0.8h-6.3V152z"/>
	<path class="st0" d="M137.1,121.6h17.6v3.8h-14.2v10.7h13.3v3.8h-13.3V152h14.9v3.8h-18.3V121.6z"/>
	<path class="st0" d="M156.6,121.6h3.7l8.6,28.1h0.1l8.9-28.1h3.5l-10.9,34.1h-3.2L156.6,121.6z"/>
	<path class="st0" d="M184.6,121.6h17.6v3.8h-14.2v10.7h13.3v3.8h-13.3V152h14.9v3.8h-18.3V121.6z"/>
	<path class="st0" d="M208,121.6h3.3V152h12.8v3.8H208V121.6z"/>
	<path class="st0" d="M240.7,156.6c-2.1,0-4.1-0.4-5.9-1.3c-1.8-0.9-3.3-2.1-4.6-3.7s-2.3-3.5-3-5.7c-0.7-2.2-1.1-4.6-1.1-7.2
		c0-2.6,0.4-5,1.1-7.2c0.7-2.2,1.7-4.1,3-5.7c1.3-1.6,2.8-2.8,4.6-3.7c1.8-0.9,3.7-1.3,5.9-1.3c2.1,0,4.1,0.4,5.9,1.3
		c1.8,0.9,3.3,2.1,4.6,3.7c1.3,1.6,2.3,3.5,3,5.7c0.7,2.2,1.1,4.6,1.1,7.2c0,2.6-0.4,5-1.1,7.2c-0.7,2.2-1.7,4.1-3,5.7
		c-1.3,1.6-2.8,2.8-4.6,3.7C244.8,156.2,242.8,156.6,240.7,156.6z M240.7,152.9c1.6,0,3.1-0.4,4.5-1.1c1.4-0.7,2.5-1.8,3.5-3
		c1-1.3,1.7-2.8,2.3-4.5c0.5-1.7,0.8-3.6,0.8-5.5c0-2-0.3-3.8-0.8-5.5c-0.5-1.7-1.3-3.2-2.3-4.5c-1-1.3-2.1-2.3-3.5-3
		c-1.4-0.7-2.8-1.1-4.5-1.1c-1.6,0-3.1,0.4-4.5,1.1c-1.4,0.7-2.5,1.8-3.5,3c-1,1.3-1.7,2.8-2.3,4.5c-0.5,1.7-0.8,3.6-0.8,5.5
		c0,2,0.3,3.8,0.8,5.5c0.5,1.7,1.3,3.2,2.3,4.5c1,1.3,2.1,2.3,3.5,3C237.5,152.5,239,152.9,240.7,152.9z"/>
	<path class="st0" d="M260.6,121.6h8.3c1.3,0,2.5,0.2,3.7,0.5c1.2,0.3,2.2,0.8,3.1,1.5s1.6,1.7,2.2,2.9c0.5,1.2,0.8,2.7,0.8,4.5
		c0,1.9-0.3,3.4-0.9,4.6c-0.6,1.2-1.3,2.2-2.2,2.9c-0.9,0.7-1.9,1.2-3,1.5c-1.1,0.3-2.1,0.4-3.1,0.4h-5.6v15.3h-3.3V121.6z
		 M263.9,136.7h5.6c1.7,0,3-0.5,4-1.4c1-0.9,1.6-2.3,1.6-4.3c0-1.9-0.5-3.4-1.6-4.3c-1-0.9-2.4-1.4-4-1.4h-5.6V136.7z"/>
	<path class="st0" d="M284,121.6h4.9l9.5,26.8h0.1l9.5-26.8h4.8v34.1h-3.3v-28.6h-0.1l-10,28.6h-2l-10-28.6h-0.1v28.6H284V121.6z"/>
	<path class="st0" d="M319.8,121.6h17.6v3.8h-14.2v10.7h13.3v3.8h-13.3V152H338v3.8h-18.3V121.6z"/>
	<path class="st0" d="M343.2,121.6h4.2l16.2,28.3h0.1v-28.3h3.3v34.1h-4.2l-16.2-28.3h-0.1v28.3h-3.3V121.6z"/>
	<path class="st0" d="M392.6,125.4h-9.2v30.4H380v-30.4h-9.2v-3.8h21.8V125.4z"/>
</g>
<g id="g1470" transform="translate(5.5689893,-126.14839)">
	<path id="path1464" class="st1" d="M159.5,239.3c-1.4-0.9-3.5-2-4.7-2.4c-0.4-0.1-0.7-0.3-0.8-0.5l-0.3-0.3l-0.8,0.1
		c-0.6,0-0.9,0.1-1.5,0.4c-0.4,0.2-1.1,0.5-1.5,0.7l-0.9,0.3l-1.6-0.3c-0.9-0.1-2.2-0.4-2.9-0.6c-1.5-0.4-1.7-0.4-4-0.2
		c-1.8,0.2-2.7,0.4-3.8,0.9c-0.4,0.2-0.9,0.4-1,0.4c-0.1,0-1.6-0.4-3.3-0.8c-3-0.8-5.4-1.7-6.2-2.1c-0.4-0.2-0.9-0.3-2.3-0.5
		c-0.4,0-0.8-0.2-1.6-0.6c-1.1-0.6-1.2-0.8-1.8-2c-0.2-0.4-0.7-1.3-1.1-1.9c-0.4-0.7-0.7-1.3-0.7-1.5c0-0.2-0.1-0.5-0.1-0.7
		c-0.1-0.2-0.2-0.6-0.3-1c-0.1-0.3-0.3-1.1-0.5-1.7l-0.4-1.1l-1.4-1.2c-0.8-0.7-2-1.6-2.7-2.1l-1.3-0.9l-1.9-3.2
		c-1.1-1.8-2-3.2-2.1-3.3c-0.3-0.2-1.8-0.6-2.1-0.6c-0.2,0-0.7,0.2-1.1,0.4c-0.4,0.2-0.9,0.4-1.1,0.4s-0.6-0.1-1-0.3
		c-0.6-0.2-0.8-0.4-1.2-0.9c-0.3-0.5-0.7-0.7-1.4-1.1c-0.5-0.3-1-0.6-1.1-0.7c-0.1-0.1-0.2-0.5-0.3-0.9s-0.2-0.9-0.3-1.1
		c-0.3-1.2-0.4-1.7-0.4-3.8c-0.1-2.7-0.1-2.4,1-3.9c0.3-0.4,0.9-1.2,1.2-1.6c0.4-0.6,0.8-1,1.4-1.4c0.5-0.4,0.8-0.7,0.9-0.9
		c0.3-0.8,0.6-2.7,0.5-3.3l-0.1-0.6l-2.5-2l-1.9-0.5c-1-0.3-2-0.6-2.1-0.6c-0.3-0.2-3.8-5.9-4.1-6.8c-0.2-0.4-0.6-1.5-0.9-2.4
		c-0.3-0.9-0.7-1.9-0.8-2.2c-0.2-0.7-0.7-1.2-3-2.7c-1.2-0.8-1.6-1.2-2-1.7c-0.5-0.6-0.5-0.7-0.4-1.1c0.1-0.2,0.1-0.9,0.1-1.5
		c0-0.6,0.1-1.4,0.2-1.8c0.3-1.3,0.3-1.6-0.4-2.4c-0.3-0.4-0.8-0.9-1.1-1.2l-0.6-0.4l-0.3-2.5c-0.3-2.7-0.4-4.9-0.2-6.9
		c0.1-0.6,0.2-1.5,0.2-2c0-0.5,0.1-1.5,0.2-2.1c0.1-0.7,0.2-2,0.2-2.8c0.1-0.9,0.2-2.2,0.2-2.9c0.1-0.7,0.1-1.6,0.2-2.1
		c0-0.4,0.1-1.4,0.2-2.1c0.1-0.7,0.2-2,0.2-2.8c0.1-0.8,0.2-2.1,0.2-2.8c0.1-0.7,0.1-1.6,0.2-2c0.2-2.2,0.3-3.6,0.4-3.8
		c0.1-0.2,2.2-0.1,14.1,0.9c7.4,0.6,11.6,0.9,13.2,0.9c1.3,0,3,0.1,3.7,0.1c0.7,0,2.1,0.1,3,0.1c1.6,0,2.6,0.1,6.9,0.2
		c1,0,2.4,0.1,3.3,0.1s3.1,0.1,5,0.1c1.9,0.1,4.2,0.1,5,0.1c0.8,0,2.2,0.1,3.2,0.1c1,0,2.5,0.1,3.3,0.1c6.1,0.2,7.9,0.2,12.8,0.3
		c6.1,0.1,11,0.1,13.8,0.2c1.4,0,4.9,0.1,7.7,0.1c2.8,0,5.7,0.1,6.4,0.1c0.7,0,19.2,0.1,40.9,0.1c28.1,0,40.4,0,42.5-0.1
		c1.6-0.1,3.7-0.1,4.7-0.2s2.8-0.1,4-0.1c1.2-0.1,3.1-0.1,4.2-0.1c1.1,0,3-0.1,4.2-0.1c1.3-0.1,3.1-0.1,4.2-0.1c1,0,2.9-0.1,4.1-0.1
		c1.2-0.1,3.1-0.1,4.2-0.1s3-0.1,4.3-0.2c1.3-0.1,3-0.1,3.9-0.1c0.9,0,2.4-0.1,3.4-0.1c1.4-0.1,1.8,0,1.9,0.1
		c0.1,0.1,0.2,2.2,0.3,17.8c0.1,6.3,0.1,12,0.2,16.6c0,1.6,0.1,4.7,0.1,6.9c0,2.2,0.1,5.1,0.1,6.5c0,1.3,0.1,4.8,0.1,7.8
		c0,2.9,0.1,6.8,0.1,8.5c0.2,11.6,0.3,22.4,0.2,27.3c0,1.9-0.1,2.1-0.2,2.3c-0.2,0.1-0.7,0.2-2.4,0.3c-2,0.2-3.1,0.2-7.7,0.5
		c-1,0.1-2.6,0.1-3.5,0.2c-0.9,0.1-2.6,0.1-3.6,0.2c-1.1,0.1-2.7,0.1-3.6,0.2c-0.9,0.1-2.6,0.1-3.6,0.2c-1.1,0.1-2.7,0.1-3.7,0.2
		c-0.9,0.1-2.5,0.1-3.4,0.2c-0.9,0.1-2.6,0.1-3.7,0.2c-1.1,0.1-2.6,0.2-3.5,0.2c-0.9,0.1-2,0.1-2.5,0.1c-0.5,0-1.6,0.1-2.4,0.1
		c-0.8,0.1-2.4,0.1-3.6,0.2c-1.1,0.1-2.7,0.1-3.5,0.2c-0.8,0.1-2.3,0.1-3.3,0.1c-1.7,0-6.9,0.2-10.1,0.3c-3.6,0.1-5.4,0.1-9.8,0.2
		c-2.6,0-6.3,0.1-8.3,0.1c-9.4,0.1-13.1,0.2-29,0.2c-9.3,0-17.9,0-18.9,0c-1.1,0-3-0.1-4.3-0.1c-1.3,0-3-0.1-3.9-0.1
		c-3.7-0.1-5-0.1-6.9-0.2c-1.1,0-2.6-0.1-3.4-0.1c-0.8,0-1.4,0-1.5,0c0,0-0.1,0.9-0.1,2c0,1-0.1,2.2-0.1,2.6c0,0.4-0.1,1.5-0.1,2.5
		c-0.1,1.7-0.1,1.9-0.3,2.2c-0.4,0.5-1.3,1-1.9,1.1C160.9,240.2,160.8,240.1,159.5,239.3L159.5,239.3z"/>
</g>
</svg>
